<?xml version="1.0" standalone="no"?>
<!DOCTYPE svg PUBLIC "-//W3C//DTD SVG 1.1//EN" "http://www.w3.org/Graphics/SVG/1.1/DTD/svg11.dtd" >
<svg xmlns="http://www.w3.org/2000/svg" xmlns:xlink="http://www.w3.org/1999/xlink" version="1.1">
<metadata></metadata>
<defs>
<font id="arpoadorregular" horiz-adv-x="903" >
<font-face units-per-em="2048" ascent="1536" descent="-512" />
<missing-glyph horiz-adv-x="512" />
<glyph horiz-adv-x="0" />
<glyph horiz-adv-x="682" />
<glyph unicode=" "  horiz-adv-x="512" />
<glyph unicode="&#x09;" horiz-adv-x="512" />
<glyph unicode="&#xa0;" horiz-adv-x="512" />
<glyph unicode="!" horiz-adv-x="323" d="M43 104q0 46 33.5 79.5t79.5 33.5q47 0 79.5 -33.5t32.5 -79.5q0 -47 -32.5 -79.5t-79.5 -32.5q-46 0 -79.5 32.5t-33.5 79.5zM82 1348h147l-24 -1004h-101z" />
<glyph unicode="&#x22;" horiz-adv-x="413" d="M37 993v406h119v-406h-119zM256 993v406h119v-406h-119z" />
<glyph unicode="#" horiz-adv-x="796" d="M31 418v123h149l31 258h-133v123h147l54 432h122l-51 -432h139l52 434l123 -2l-52 -432h142v-123h-156l-31 -258h131v-123h-145l-51 -418h-123l49 418h-139l-49 -418l-123 -2l49 420h-135zM305 541h137l31 258h-137z" />
<glyph unicode="$" horiz-adv-x="714" d="M23 332l63 57q35 -68 96 -123q67 -61 140 -73v454q-97 40 -140 70q-97 63 -112 172q-24 159 32 254q37 61 109 96q43 20 111 29v92h81v-90q134 -9 215 -148q20 -33 34.5 -71t19 -57.5t4.5 -24.5l-74 -21q-10 60 -45 115q-56 95 -154 104v-446q59 -23 111 -49 q66 -34 104 -121q37 -82 31 -176q-3 -93 -51 -166q-52 -80 -137 -107q-14 -4 -58 -14v-86h-81v88q-95 12 -185 92q-72 66 -114 150zM143 909q9 -57 74 -102q36 -24 105 -53v411q-48 -6 -86 -24q-50 -21 -74 -62q-36 -64 -19 -170zM403 193q30 5 39 8q40 13 67.5 37t40 52.5 t17.5 50t6 42.5q3 66 -20 117q-24 56 -66 78q-31 16 -84 38v-423z" />
<glyph unicode="%" horiz-adv-x="1005" d="M43 965q0 67 48 115t114 48q68 0 116 -48t48 -115q0 -66 -48.5 -114t-115.5 -48q-66 0 -114 48t-48 114zM53 0l682 1356l135 -2l-682 -1356zM125 965q0 -32 24 -56t56 -24q34 0 58 24t24 56q0 34 -24 58t-58 24q-32 0 -56 -24t-24 -58zM631 518q0 67 48 114.5t114 47.5 q68 0 115.5 -47.5t47.5 -114.5q0 -68 -48 -116t-115 -48q-66 0 -114 48.5t-48 115.5zM713 518q0 -34 24 -58t56 -24q34 0 57.5 24t23.5 58t-23.5 57t-57.5 23q-33 0 -56.5 -23.5t-23.5 -56.5z" />
<glyph unicode="&#x26;" horiz-adv-x="1705" />
<glyph unicode="'" horiz-adv-x="196" d="M39 993v406h119v-406h-119z" />
<glyph unicode="(" horiz-adv-x="362" d="M61 770q30 325 152 629l115 -47q-117 -287 -144 -594q-24 -250 6 -506q7 -59 16.5 -117.5t19.5 -105t20.5 -88t20 -72t16.5 -53t11 -34.5l5 -11l-115 -45l-5 14q-5 15 -12.5 38t-17.5 56t-21 77t-22 93t-21 110.5t-17 123.5q-31 274 -7 532z" />
<glyph unicode=")" horiz-adv-x="395" d="M37 1352l115 47q121 -301 151 -629q24 -263 -6 -532q-8 -62 -18 -123.5t-21 -110.5t-22 -93t-21 -77t-17.5 -56t-12.5 -38l-5 -14l-114 45l4 11l11.5 34.5t16.5 53t19.5 72t20.5 88t19.5 105t16.5 117.5q30 256 6 506q-27 310 -143 594z" />
<glyph unicode="*" horiz-adv-x="454" d="M23 1157l24 76l127 -39v139h80v-137l141 43l23 -76l-139 -43l88 -123l-64 -47l-88 121l-76 -115l-67 43l78 119z" />
<glyph unicode="+" horiz-adv-x="821" d="M33 369v94h338v338h94v-338h338v-94h-338v-344h-94v344h-338z" />
<glyph unicode="," horiz-adv-x="268" d="M20 55q0 38 28 65t67 27q37 0 64.5 -27t27.5 -65q0 -21 -10 -41q29 -63 24 -120q-12 -96 -106 -160l-43 63q65 47 71 105q3 30 -10 63q-6 -2 -18 -2q-39 0 -67 27t-28 65z" />
<glyph unicode="-" d="M80 365v94h768v-94h-768z" />
<glyph unicode="." horiz-adv-x="237" d="M25 49q0 38 26.5 64t63.5 26t63.5 -26t26.5 -64q0 -37 -26.5 -63.5t-63.5 -26.5t-63.5 26.5t-26.5 63.5z" />
<glyph unicode="/" horiz-adv-x="899" d="M43 4l682 1356l135 -2l-682 -1356z" />
<glyph unicode="0" horiz-adv-x="970" d="M70 668q0 278 110 469q53 94 131 153q82 60 174 60t174 -60q80 -61 132 -153q110 -191 110 -469q0 -275 -110 -469q-55 -94 -132 -152q-79 -61 -174 -61t-174 61q-75 57 -131 152q-110 194 -110 469zM193 668q0 -242 96 -408q85 -151 196 -151q112 0 197 151 q96 166 96 408q0 243 -96 409q-86 150 -197 150q-110 0 -196 -150q-96 -166 -96 -409z" />
<glyph unicode="1" horiz-adv-x="579" d="M18 997l369 340q32 29 68 13q37 -16 37 -58l-11 -1292h-123l9 1151l-265 -246z" />
<glyph unicode="2" horiz-adv-x="907" d="M84 53q-18 36 4 78q4 10 35 55q38 49 141 164q81 92 98 111v2q234 255 308 440q65 146 26 236q-20 44 -73 71q-59 27 -136 27q-110 0 -178 -68q-39 -39 -61.5 -99t-25.5 -100l-3 -40l-123 -2q0 11 1 26t7.5 56t18.5 78.5t37.5 84.5t60.5 82q102 105 266 105 q117 0 201 -45t121 -127q58 -134 -25 -334q-91 -211 -329 -473q-14 -17 -99 -113q-87 -98 -125 -143h594v-123h-598q-51 0 -69 4q-56 6 -74 47z" />
<glyph unicode="3" horiz-adv-x="884" d="M66 356h114v-4q0 -18 1.5 -40.5t20.5 -79.5t54 -93q64 -64 182 -61q117 5 191 96q72 88 69 201q0 99 -59 155q-64 67 -186 70h-7h-4v117h13q118 0 188 67q56 59 59 156q0 117 -71 203q-74 92 -191 94q-118 3 -182 -61q-35 -36 -53.5 -89.5t-19.5 -89.5l-1 -36h-116 q0 186 108 296q100 100 268 97q168 -6 277 -140q99 -120 96 -276q0 -141 -92 -236q-27 -27 -57 -45q25 -15 55 -45q92 -95 92 -235q3 -157 -96 -277q-109 -134 -277 -137h-14q-162 0 -254 96q-108 108 -108 297z" />
<glyph unicode="4" horiz-adv-x="761" d="M55 684v672h123v-674q0 -50 19 -102q32 -80 108 -80q76 -2 207 -2v856h123v-856h55v-123h-51h-4v-373h-123v373q-131 0 -209 2q-97 0 -164 67q-55 58 -76 156q-8 43 -8 84z" />
<glyph unicode="5" horiz-adv-x="884" d="M59 389h127q0 -6 0.5 -16.5t4.5 -41t11.5 -58t24.5 -61.5t41 -58q63 -66 170 -66q132 0 201 72q19 21 32.5 47.5t19 50t8 44t2.5 32.5t-1 12v4v4q0 128 -69 199q-65 68 -189 68h-319v4v729h618l2 -125l-495 -4v-477h194q178 0 281 -109q104 -109 104 -287q2 -25 -1 -61.5 t-27 -102.5t-68 -114q-105 -111 -293 -111q-162 0 -262 103q-34 35 -58.5 82t-35.5 82.5t-16.5 78t-6 54.5t-0.5 26z" />
<glyph unicode="6" horiz-adv-x="927" d="M49 369q0 135 84 243l490 744l147 -2l-383 -586q46 4 68 4q167 0 285 -118t118 -285q0 -168 -118 -287t-285 -119t-286.5 119.5t-119.5 286.5zM176 369q0 -115 82 -197t197 -82t196.5 81.5t81.5 197.5q0 115 -81.5 196.5t-196.5 81.5q-124 0 -207 -90v-2 q-72 -78 -72 -186z" />
<glyph unicode="7" horiz-adv-x="915" d="M57 1231v123l795 2l-492 -1358h-129l445 1235z" />
<glyph unicode="8" horiz-adv-x="935" d="M88 977q0 157 111 268t268 111t268 -111t111 -268q0 -96 -47 -179.5t-125 -135.5q80 -52 127 -137t47 -183q0 -157 -111 -268t-268 -111t-268 111t-111 268q0 98 46.5 181.5t125.5 135.5q-80 52 -127 136t-47 182zM211 977q0 -104 75 -179t181 -75q104 0 179 75t75 179 q0 106 -75 181t-179 75q-106 0 -181 -75t-75 -181zM215 342q0 -105 74.5 -179.5t179.5 -74.5q106 0 181 74t75 180t-75 181t-181 75q-104 0 -179 -75t-75 -181z" />
<glyph unicode="9" horiz-adv-x="935" d="M63 963q0 163 116.5 279t279.5 116q164 0 280.5 -116t116.5 -279q0 -131 -82 -240l-477 -723h-145l374 571q-46 -4 -67 -4q-163 0 -279.5 116t-116.5 280zM186 963q0 -113 80 -193t193 -80q118 0 203 88q71 81 71 185q0 113 -80 192.5t-194 79.5q-113 0 -193 -80 t-80 -192z" />
<glyph unicode=":" horiz-adv-x="307" d="M57 80q0 38 26.5 64t63.5 26t64 -26t27 -64q0 -37 -27 -63.5t-64 -26.5t-63.5 26.5t-26.5 63.5zM57 797q0 38 26.5 64t63.5 26t64 -26t27 -64q0 -37 -27 -63.5t-64 -26.5t-63.5 26.5t-26.5 63.5z" />
<glyph unicode=";" horiz-adv-x="268" d="M29 74q0 38 28 65t66 27q37 0 64.5 -27t27.5 -65q0 -21 -10 -41q29 -64 24 -121q-12 -96 -106 -160l-43 64q67 48 72 104q3 29 -11 64q-6 -2 -18 -2q-38 0 -66 27t-28 65zM31 797q0 38 26.5 64t63.5 26t63.5 -26t26.5 -64q0 -37 -26.5 -63.5t-63.5 -26.5t-63.5 26.5 t-26.5 63.5z" />
<glyph unicode="&#x3c;" horiz-adv-x="970" d="M29 489v173l862 364l43 -100l-795 -336v-29l785 -334l-45 -102z" />
<glyph unicode="=" horiz-adv-x="839" d="M29 365v94h768v-94h-768zM33 565v94h768v-94h-768z" />
<glyph unicode="&#x3e;" horiz-adv-x="999" d="M33 926l43 100l862 -364v-173l-850 -364l-43 102l782 334v29z" />
<glyph unicode="?" horiz-adv-x="856" d="M31 942q0 60 1 74q14 137 97 227q106 115 295 115q139 0 225 -51q85 -49 123 -142q54 -133 -10 -313q-61 -166 -184 -283q-2 -2 -6.5 -6t-6.5 -6q-30 -30 -43.5 -47.5t-27 -62t-13.5 -107.5h-123q0 124 39 201q25 47 82 104q7 7 13 10v2q102 94 153 236q51 135 12 227 q-47 115 -233 115q-137 0 -205 -74q-65 -74 -65 -219h-123zM313 104q0 46 33 79.5t80 33.5q46 0 79.5 -33.5t33.5 -79.5q0 -47 -33.5 -79.5t-79.5 -32.5q-47 0 -80 32.5t-33 79.5z" />
<glyph unicode="@" horiz-adv-x="1314" d="M45 784v2l2 10q2 10 5.5 24.5t9 35t14.5 45.5t20 51.5t26.5 56.5t33.5 58q34 54 77.5 99.5t106.5 89.5t150.5 69t189.5 25q15 0 39 -1.5t85 -14t117 -33.5t123 -66.5t115 -106.5q180 -233 72 -645q-16 -98 -103 -172q-90 -78 -184 -65q-93 12 -139 119q-75 -78 -166 -78 q-56 0 -107 29t-88 81q-71 100 -71 240q0 142 71 242q37 52 88 81t107 29q97 0 174 -86q2 22 3.5 40.5t2 28.5t1.5 16.5t1 9.5v3v-2h123q0 -33 -37 -378q-16 -132 13 -211q15 -41 41 -41q40 -6 90 39t59 100l2 2v2q92 356 -49 541q-81 103 -238 151q-82 23 -147 23 q-277 0 -418 -228q-66 -102 -92 -231q-37 -297 125 -485q82 -96 195.5 -146.5t197.5 -54.5q41 -1 83.5 4t79 14t70.5 19.5t60 21.5t46 20.5t31 14.5l11 6l61 -106q-73 -37 -98 -47q-170 -70 -328 -70q-14 0 -20 2q-99 0 -229 55q-152 70 -252 185q-93 110 -133 243 q-44 155 -23 340zM496 637q0 -100 49 -168q36 -59 94 -59q53 0 94 59q47 65 47 168q0 105 -47 170q-41 59 -94 59q-58 0 -94 -59q-49 -68 -49 -170z" />
<glyph unicode="A" horiz-adv-x="937" d="M27 2q0 1 11 42t33 120t40 147q258 943 325 1020q20 29 53 29q9 0 19 -2q27 -6 46 -29.5t38 -68.5q27 -62 55 -158q57 -191 119 -451q33 -138 69 -300.5t56 -255t20 -93.5l-127 -2q0 3 -18 88.5t-52.5 240t-68.5 294.5l-2 2q-76 -40 -150.5 -99t-131 -119t-87.5 -97 t-53 -68q-16 -58 -32.5 -120.5t-24 -90t-8.5 -27.5zM299 522q158 155 313 228q-72 292 -116 415q-70 -196 -197 -643z" />
<glyph unicode="B" horiz-adv-x="843" d="M41 0l2 1354l55 4q4 0 30 2q20 1 52 2h23q49 0 96 -6q228 -21 311 -129q68 -101 68 -195q0 -42 -14 -84q-23 -75 -101 -147q80 -41 121 -84q83 -83 113 -248q10 -50 10 -97q0 -127 -74 -227q-69 -94 -172 -127q-56 -18 -266 -18h-254zM166 123q62 -1 113 -1q205 0 243 13 q8 2 23.5 9.5t42.5 27.5t47 47q48 63 48 154q0 34 -7 73q-10 54 -25.5 93t-31 64t-45.5 47.5t-53 34.5t-70 34q-2 2 -5 2q-115 -64 -280 -109v-489zM166 741q170 49 270 117q90 63 111 129q6 18 7.5 36t-1 33.5t-7 29.5t-10 25.5t-10.5 19.5t-8 13l-4 5l-2 2q-48 67 -223 82 q-47 6 -123 6v-498z" />
<glyph unicode="C" horiz-adv-x="909" d="M27 633v21q0 170 47 313q50 161 147 258q129 129 307 129q150 0 244 -97q32 -32 55 -75.5t33 -77.5t16 -72.5t6.5 -51.5t0.5 -24l-125 5q3 0 0 36t-21.5 89t-52.5 88q-60 57 -156 57q-127 0 -219 -92q-79 -82 -119 -209q-40 -130 -40 -295q3 -168 47 -287 q40 -115 112 -184q85 -82 197 -82h8q137 6 188 72q39 51 39 163h125q0 -152 -65 -239q-43 -55 -113 -86q-79 -30 -170 -33h-14q-160 0 -281 115q-93 90 -144 234t-52 325z" />
<glyph unicode="D" horiz-adv-x="854" d="M33 6v1348l55 4q16 2 41 2q230 0 401 -98q135 -77 209 -203q88 -149 88 -365q0 -212 -38 -350t-119 -219q-75 -75 -177.5 -101t-230.5 -26q-73 0 -172 6zM152 123q82 -4 110 -4q123 0 199 21.5t125 70.5q121 121 121 483q0 183 -72 303q-55 98 -164 160q-136 77 -319 82 v-1116z" />
<glyph unicode="E" horiz-adv-x="825" d="M31 0v1352l692 2v-123l-567 -4l2 -463h436v-123h-436l4 -516h561v-125h-692z" />
<glyph unicode="F" horiz-adv-x="743" d="M23 1364l702 -2v-123h-565v-489l436 -2v-125l-436 2l-2 -625h-125z" />
<glyph unicode="G" horiz-adv-x="905" d="M31 629v20q0 163 45 305q51 160 145 254q124 127 301 127q152 0 240 -94q31 -32 54 -74t33 -75t16 -70t6.5 -49.5t0.5 -22.5h-122v-2q0 16 -2 40t-20.5 79.5t-51.5 89.5q-57 57 -154 57q-125 0 -215 -90q-77 -80 -117 -204q-38 -122 -38 -268v-21q3 -165 45 -283 q40 -113 110 -180q83 -80 193 -80h8q135 6 184 70q33 39 39 118v142h-244v121h363l4 -578h-121v68q-31 -19 -55 -29q-68 -30 -166 -33h-14q-156 0 -275 113q-91 88 -141 229.5t-51 319.5z" />
<glyph unicode="H" horiz-adv-x="876" d="M35 1360h131l2 -576l541 -2v572h131v-1354h-131v651l-541 2v-653h-131z" />
<glyph unicode="I" horiz-adv-x="399" d="M150 0v1354h129l2 -1354h-131z" />
<glyph unicode="J" horiz-adv-x="638" d="M33 260v4h129q0 -3 -1 -7.5t-1 -6.5q0 -1 -0.5 -16t0 -23t2.5 -22t7.5 -26t14.5 -22q43 -43 142 -45q54 0 86 35q41 43 54 121q12 63 12 113q0 11 -1 22v2l2 965h125l2 -961q0 -79 -6 -125q-21 -147 -96 -225q-68 -74 -176 -74h-6q-158 3 -234 88q-56 62 -56 171 q0 16 1 32z" />
<glyph unicode="K" horiz-adv-x="739" d="M39 1356l131 2l4 -594q38 6 85.5 19t104 34.5t101 54t59.5 68.5q45 112 45 414l129 2q0 -333 -53 -465q-51 -123 -239 -197q43 -22 79 -53q222 -183 222 -631v-12l-132 2v22q0 202 -53 340q-44 116 -119 179q-70 58 -174 71q-20 2 -53 2l-4 -614h-131z" />
<glyph unicode="L" horiz-adv-x="821" d="M43 2v1352h127v-1225l616 -4v-127z" />
<glyph unicode="M" horiz-adv-x="1224" d="M31 0l10 1292q0 20 13.5 37t33.5 23q22 4 41.5 -5t28.5 -28l405 -811h2l416 815q9 20 28 29t40 4q21 -4 34 -21t13 -39v-1298h-123v1040l-305 -602l-33 -67l-137 -2l-27 51l-16 31l-293 585l-8 -1036z" />
<glyph unicode="N" horiz-adv-x="999" d="M29 0v1292q0 22 12 38.5t31 21.5q20 6 39 -2t30 -25l699 -1153v1120q0 25 18 43.5t43 18.5q26 0 44 -18.5t18 -43.5v-1233v-6v-53h-56h-4h-67h-2h-33l-27 41l-8 14l-614 1018v-1073h-123z" />
<glyph unicode="O" horiz-adv-x="987" d="M27 645q0 297 116 488q55 96 146 155q89 60 200 60q204 0 330.5 -192t126.5 -505q0 -295 -115 -481q-55 -93 -143 -152q-94 -57 -201 -57t-198 57q-89 54 -148 150q-114 182 -114 477zM147 645q0 -257 99 -414q42 -71 106 -110q61 -37 135 -37q75 0 136 37q60 40 106 112 q94 157 94 418q0 262 -94 422q-48 77 -104 115q-59 39 -136 39q-147 0 -243 -158q-99 -167 -99 -424z" />
<glyph unicode="P" horiz-adv-x="825" d="M63 -2v1356l56 6h7q8 1 20 1.5t28.5 1t37.5 0.5t43.5 -0.5t49.5 -2.5t53 -4q270 -24 363 -152q8 -9 18.5 -24.5t26.5 -47.5q14 -32 24 -68q9 -34 10 -80q0 -52 -16 -101q-84 -262 -600 -398v-487h-121zM184 610q212 59 348 148q112 79 138 164q10 28 10 58q0 41 -18 87 q-6 17 -14.5 32t-14 22t-6.5 7v2h-2q-61 86 -277 105q-73 7 -129 7q-19 0 -35 -1v-631z" />
<glyph unicode="Q" horiz-adv-x="968" d="M27 645q0 292 116 488q58 97 148 155q86 60 201 60q204 0 329 -192t125 -505q0 -293 -112 -479q-40 -66 -86 -106l90 -138l-101 -67l-90 137q-75 -35 -158 -35q-109 0 -200 55q-83 53 -146 150q-116 185 -116 477zM150 645q0 -255 98 -414q42 -68 104 -108 q59 -39 137 -39q45 0 91 16l-123 187l102 65l121 -184q32 36 49 68q96 157 96 415q0 262 -94 422q-46 75 -106 115q-56 39 -133 39q-150 0 -244 -158q-98 -165 -98 -424z" />
<glyph unicode="R" horiz-adv-x="880" d="M43 0v1360q70 3 132 3q93 0 169 -7q275 -24 363 -146q9 -11 18 -24.5t25.5 -48t25.5 -69.5t9 -84.5t-15 -96.5q-43 -132 -197 -234q43 -37 78 -88q56 -85 92 -209q41 -149 41 -356l-120 -2q0 323 -107 487q-14 21 -29 39t-27 29t-22 18.5t-17 12.5l-7 4 q-131 -62 -287 -103v-485h-125zM166 1247l2 -635q420 118 487 312q9 30 9 61q0 40 -15 82q-20 49 -37 66l-2 2v2q-64 82 -278 104q-66 6 -166 6zM455 586v2v-2z" />
<glyph unicode="S" horiz-adv-x="1085" d="M18 252l99 67l7 -9q7 -8 20 -23t30 -33t43 -40t53 -40q138 -91 287 -91q61 0 123 15t105.5 43.5t63.5 62.5t28 59t10 50q1 9 1 19q0 61 -34 119q-40 66 -104 90q-51 21 -201 65q-195 54 -279 99q-153 77 -180 202q-11 53 -11 100q0 115 64 197q65 77 170 113 q100 36 260 39h6q242 0 379 -174q30 -39 52.5 -84t29.5 -68.5t7 -28.5l-117 -26q0 3 -5.5 20.5t-22.5 51.5t-40 63q-102 125 -281 125h-8q-119 0 -221 -31q-76 -27 -114 -74q-38 -48 -38 -121q0 -35 9 -77q12 -69 115 -121q65 -33 258 -90q118 -33 211 -68q108 -45 163 -143 q51 -84 51 -178q0 -14 -1 -29q-6 -111 -80 -194q-78 -90 -219 -125q-78 -19 -152 -19q-191 0 -356 113q-51 36 -96.5 79.5t-63.5 66t-21 28.5z" />
<glyph unicode="T" horiz-adv-x="825" d="M25 1225v123h747v-123h-311v-1225h-123v1225h-313z" />
<glyph unicode="U" horiz-adv-x="968" d="M29 360v994h121v-994q-1 -73 40 -145q69 -122 232 -131q15 -1 29 -1q106 0 176 60q91 82 110 254q2 44 4 285t3 445.5t1 224.5h121q0 -827 -8 -963q-1 -23 -6.5 -53t-20 -82t-47 -106t-77.5 -95q-106 -92 -261 -92h-32q-231 15 -330 195q-55 102 -55 204z" />
<glyph unicode="V" horiz-adv-x="1052" d="M27 1354h114l404 -1258l373 1258h116l-381 -1317v-2q-10 -26 -38 -48t-72 -22t-71.5 22t-35.5 48z" />
<glyph unicode="W" horiz-adv-x="1511" d="M27 1354h125q198 -862 284 -1200q51 218 232 1073h178q195 -840 254 -1073q93 402 266 1200h119q0 -2 -19.5 -96t-55 -259.5t-67.5 -310.5q-41 -191 -100 -452q-6 -29 -13 -58t-13.5 -56t-8.5 -38q-18 -72 -26 -83q-2 -3 -6 -7q-31 -31 -72 -31q-28 0 -55 12 q-26 12 -41 56q-1 5 -13 45q-16 55 -39 151q-35 143 -108 457q-38 154 -88 383q-45 -219 -80 -379q-41 -191 -100 -452q-8 -37 -20 -89l-15 -65q-13 -50 -18 -64t-15 -24q-28 -31 -72 -31q-28 0 -55 12q-25 11 -41 54q-3 16 -12 47q-16 55 -39 151q-59 243 -109 457 q-157 660 -157 670z" />
<glyph unicode="X" horiz-adv-x="1046" d="M23 1354l145 2l362 -576l322 574h139l-387 -690l418 -664h-145l-340 541l-304 -541h-139l369 657z" />
<glyph unicode="Y" horiz-adv-x="1021" d="M29 1356l141 2l354 -639l334 637h137l-407 -783v-571h-123v571z" />
<glyph unicode="Z" horiz-adv-x="1009" d="M31 0l733 1233h-723v121h938l-733 -1231h725v-123h-940z" />
<glyph unicode="[" horiz-adv-x="501" d="M59 -254v1649h111h289v-111h-289v-1427h291v-111h-291h-111z" />
<glyph unicode="\" horiz-adv-x="911" d="M37 1358l135 2l682 -1356l-135 -2z" />
<glyph unicode="]" horiz-adv-x="477" d="M29 -141h288v1427h-288v111h288h111v-1649h-111h-288v111z" />
<glyph unicode="_" horiz-adv-x="940" d="M37 -70h844v-90h-844v90z" />
<glyph unicode="`" horiz-adv-x="413" d="M68 1038l71 68l197 -211l-72 -68z" />
<glyph unicode="a" horiz-adv-x="651" d="M28 456q4 82 25 142q31 91 99.5 142t169.5 57h2h2q85 0 143 -27q39 -17 70 -42.5t42 -42.5l11 -17v-478q0 -49 20 -69l21 -10v-109h-17q-16 -1 -37.5 3.5t-37.5 17.5q-3 3 -9 6l-2 -2q-75 -60 -192 -60h-2q-143 0 -223 80q-82 82 -82 236q0 27 -2 45q-3 25 -3 62 q0 29 2 66zM152 334q2 -20 2 -55q0 -102 47 -146q43 -43 135 -43q98 0 133 47v484q-5 10 -16 18q-39 35 -125 35q-63 -5 -101.5 -32.5t-58.5 -82.5q-17 -52 -17 -167q0 -27 1 -58z" />
<glyph unicode="b" horiz-adv-x="657" d="M23 0v121q12 8 22 18q23 20 23 70l2 1134h120l-2 -575q61 25 144 25h2h2q205 -12 268 -201q23 -70 23 -187q0 -38 -2 -81v-48q0 -151 -84 -235q-81 -78 -222 -78h-4q-130 0 -192 51q-8 6 -19 17q-23 -13 -48.5 -22t-32.5 -9zM184 133q35 -47 133 -47h11q84 0 127 43 q47 47 47 147q0 34 2 54q2 25 2 60v49q-2 69 -19 114q-19 57 -56.5 85t-100.5 34q-64 0 -98 -18.5t-44 -37.5z" />
<glyph unicode="c" horiz-adv-x="602" d="M25 274v50q-3 47 -3 88q0 123 23 192q27 85 86 135q68 59 174 68h2h11q133 0 200 -70q49 -51 49 -119h-118q4 28 -19 48q-33 26 -104 26h-15q-66 -4 -101 -33t-56 -92q-7 -22 -11.5 -46t-6 -52.5t-2 -45.5t0 -50.5t0.5 -42.5v-56q0 -88 53 -141q42 -42 127 -42q11 0 23 1 q73 5 104 60q6 12 9.5 23t3.5 15v5h112q0 -59 -26 -105q-59 -103 -199 -113h-25q-135 0 -211 76q-81 78 -81 221z" />
<glyph unicode="d" horiz-adv-x="649" d="M31 324q-2 41 -2 78q0 118 24 190q31 92 98.5 143.5t167.5 57.5h3h2q84 0 145 -25l-2 575h121l2 -1134q0 -50 22 -70l23 -18v-121q-7 0 -33.5 9t-48.5 22q-3 -2 -18 -17q-66 -51 -195 -51h-2q-143 0 -221 78q-84 84 -84 235q0 30 -2 48zM154 330q0 -11 1 -29.5t1 -24.5 q0 -100 47 -147q43 -43 126 -43h11q96 0 131 47l-2 483q-35 56 -141 56q-64 -6 -101.5 -34t-56.5 -85q-19 -52 -18 -145q-1 -36 2 -78z" />
<glyph unicode="e" horiz-adv-x="643" d="M27 428q12 183 94 277q77 89 207 92h11q109 0 177 -56q71 -61 74 -149v-7q0 -106 -90 -184q-96 -84 -256 -90h-2h-97q2 -28 7 -51v-8q4 -36 13 -62.5t27.5 -53t54 -40.5t85.5 -14h6q84 0 113 65q7 15 11.5 32t5.5 27l1 9l119 2q0 -64 -29 -123q-31 -63 -87 -97t-130 -36 h-10q-168 0 -246 117q-39 58 -53 160v6q-8 70 -8 128q0 30 2 56zM145 430l95 2q110 2 182 60q49 43 49 96q0 35 -31 59q-39 31 -104 31h-6q-74 0 -119 -51q-53 -59 -66 -197z" />
<glyph unicode="f" horiz-adv-x="438" d="M16 672v125h129v231q-1 6 -1 16q0 24 8 70q18 103 79 164q71 74 187 74h-1h-2h-2h-2h-2h-2h-1h-2h-1h-1h-1h-1h-1h-1h-1h-1h-1h1h1h1h1h1h1h1h1h1h1h1h1h1h1h1h1h1h1h1h1h1h1h1h1h1h1h1h10v-123h-12h-2q-62 0 -99 -37q-51 -53 -51 -162v-2v-229h152l2 -127h-154v-674 h-123l-2 674h-127z" />
<glyph unicode="g" horiz-adv-x="675" d="M32 310q-2 35 -2 63q0 39 3 65q2 18 2 45q0 154 84 238q83 80 223 80h2q123 -4 195 -62q8 -6 20 -18q39 27 82 27v-123q2 0 2 2q-10 -3 -20 -13q-23 -20 -23 -69l-2 -903v-72q-7 -62 -72 -127q-38 -38 -139 -38q-14 0 -29 1h-16v121q12 -1 24 -1q55 0 74 21q33 33 33 62 v24v357q-66 -27 -143 -27h-2h-2q-102 8 -171 59.5t-100 143.5q-20 61 -23 144zM158 430q-3 -44 -3 -82q0 -91 17 -143q21 -56 58.5 -84.5t101.5 -32.5q110 0 143 53l2 488q-40 47 -133 47h-2q-92 0 -135 -43q-47 -44 -47 -150q0 -6 -1 -24t-1 -29z" />
<glyph unicode="h" horiz-adv-x="649" d="M37 0v442v39v797h123v-533q67 46 153 46h11q111 0 186 -78t96 -221q10 -51 10 -121l-2 -371h-122l2 373q0 52 -9 102q-15 104 -63 152q-38 41 -98 41q-75 0 -113 -41q-46 -49 -51 -146v-481h-123z" />
<glyph unicode="i" horiz-adv-x="260" d="M49 985q0 29 21.5 50.5t50.5 21.5t49 -21t20 -51q0 -29 -20 -49.5t-49 -20.5t-50.5 20.5t-21.5 49.5zM63 0v797h123v-797h-123z" />
<glyph unicode="j" horiz-adv-x="296" d="M-41 -473l23 2h2h11q44 0 66 22q31 29 31 87l4 403l2 758h121v-205v-950q0 -18 -3 -41t-20.5 -66t-48.5 -74q-57 -57 -152 -57h-15l-21 -4v125zM84 993q0 29 21.5 50.5t50.5 21.5t49 -21t20 -51q0 -29 -20 -49t-49 -20q-30 0 -51 20t-21 49zM96 190l2 488z" />
<glyph unicode="k" horiz-adv-x="616" d="M39 0v504l2 774l123 -2l-4 -746q142 15 215 91q71 73 71 176v-2l123 6v-20t-5.5 -42t-15 -62.5t-31 -68t-52.5 -71.5q-51 -51 -113 -80q4 -3 11.5 -8.5t11.5 -8.5q87 -69 139 -184q24 -57 37.5 -123t15.5 -93t2 -42h-61h-62q0 11 -2 33.5t-13.5 78t-31.5 101.5 q-42 89 -100 133q-62 47 -139 55v-399h-121z" />
<glyph unicode="l" horiz-adv-x="264" d="M68 1280h125v-1282h-123z" />
<glyph unicode="m" horiz-adv-x="1263" d="M20 676v123q79 0 134 -58q15 -12 32 -43q2 2 5.5 6t6 6.5t5.5 4.5q81 84 223 84q147 0 231 -84q2 -2 5.5 -6t6 -6.5t5.5 -4.5q8 8 14 17q84 84 234 84q139 0 221 -82q39 -40 61.5 -98t25.5 -85t3 -45v-487h-123v487q0 50 -25 101q-47 86 -163 86q-99 0 -146 -47 q-29 -29 -41 -84q2 -12 2 -23v-520h-4v-4h-123v530q0 7 2 15q-13 47 -22 59q-47 74 -164 74q-91 0 -135 -47q-23 -23 -36 -55.5t-15 -53.5l-2 -22v-2v-9v-32v-457h-123v483q-5 128 -49 174q-18 21 -46 21z" />
<glyph unicode="n" horiz-adv-x="825" d="M51 676v123q77 0 135 -58q14 -16 33 -43q2 3 7 8.5t7 8.5q84 84 224 84q147 0 231 -84q35 -35 55 -83.5t22.5 -71t2.5 -40.5v-518h-123v520q0 44 -24 80q-44 74 -164 74q-88 0 -135 -47q-23 -23 -36 -57.5t-14.5 -50.5t-1.5 -25v-11v-32v-455h-123v483q-5 128 -51 174 q-18 21 -45 21z" />
<glyph unicode="o" horiz-adv-x="710" d="M16 381q0 166 93 289q40 56 104 94q60 35 135 35t135 -35q61 -36 105 -94q90 -123 90 -289q0 -165 -90 -291q-45 -57 -105 -92q-64 -37 -135 -37t-135 37q-63 37 -104 92q-93 126 -93 291zM137 381q0 -131 68 -217q60 -82 143 -82q84 0 144 82q67 89 67 217t-67 217 q-60 82 -144 82q-83 0 -143 -82q-68 -86 -68 -217z" />
<glyph unicode="p" horiz-adv-x="675" d="M33 621v122q43 0 80 -26q12 12 20 18q73 60 193 60h4q141 0 221 -80q82 -79 82 -234q0 -5 1 -21t1 -26q2 -43 2 -81q0 -118 -23 -189q-63 -186 -268 -201h-2h-2q-77 0 -143 27l2 -576h-121l-6 1127h-2q0 48 -21 69q-4 4 -8.5 7t-6.5 3zM195 625l2 -486q38 -53 143 -53 q63 4 101 32.5t57 84.5q17 53 17 167q0 27 -1 58q-2 20 -2 53q0 101 -47 148q-46 43 -137 43q-93 0 -133 -47z" />
<glyph unicode="q" horiz-adv-x="665" d="M29 434q2 18 2 47q0 153 84 234q77 80 221 80h2q119 0 192 -60q12 -9 21 -18q37 26 82 26v-122q-9 -1 -19 -11q-22 -20 -22 -69l-6 -1127h-123l4 576q-69 -27 -145 -27h-3h-2q-100 7 -167.5 58.5t-98.5 142.5q-24 74 -24 192q0 37 2 78zM152 428q-2 -40 -2 -75 q0 -96 18 -150q19 -56 56.5 -84.5t101.5 -32.5q103 0 141 53l2 486q-40 47 -131 47q-94 0 -137 -43q-47 -47 -47 -148q0 -7 -1 -25t-1 -28z" />
<glyph unicode="r" horiz-adv-x="512" d="M25 674v121q80 0 133 -56q17 -20 28 -37q86 95 250 95h2v-121q-115 0 -162 -53q-38 -42 -38 -119v-4v-2v-500l-117 -2l-2 500v20q-8 98 -49 139q-16 19 -45 19z" />
<glyph unicode="s" horiz-adv-x="620" d="M10 141l101 62q26 -41 71 -76q58 -43 121 -43q28 0 57 8q79 19 84 94v11q0 27 -12 53q-15 30 -41 43q-39 16 -98 33q-104 33 -146 59q-87 49 -102 129q-7 35 -7 66q0 77 44 127q67 85 231 88h10q134 0 209 -109q17 -24 29 -50.5t16.5 -41.5t4.5 -19l-115 -22 q-8 35 -31 68q-42 57 -121 57q-110 -3 -143 -45q-16 -20 -16 -56q0 -18 4 -40q5 -31 48 -52.5t122 -46.5q56 -18 108 -39q60 -26 94 -88q29 -53 29 -112v-21q-7 -74 -47 -123q-44 -56 -123 -78q-36 -10 -86 -10q-105 0 -196 70q-58 43 -99 104z" />
<glyph unicode="t" horiz-adv-x="452" d="M25 672v123h137v270h123v-270h137v-123h-137v-672h-123v672h-137z" />
<glyph unicode="u" horiz-adv-x="659" d="M39 311v477h123v-481v-2v-14q0 -41 9 -91q11 -60 44 -94q25 -28 76 -28q137 0 162 37q12 15 17.5 50t6 61.5t0.5 90.5v471h123v-471q0 -79 -2 -114q1 -26 2.5 -37t6.5 -26.5t14 -24.5l20 -11v-106q-1 0 -9 -1.5t-15.5 -1.5t-21.5 5t-30 16q-9 6 -20 17 q-39 -46 -102.5 -62t-151.5 -16q-101 0 -166 68q-62 68 -80 188q-6 37 -6 100z" />
<glyph unicode="v" horiz-adv-x="708" d="M25 797h122l213 -672l203 674h117l-229 -793l-2 -10q-16 -39 -91 -39q-35 0 -58.5 13.5t-29.5 35.5z" />
<glyph unicode="w" horiz-adv-x="962" d="M29 803h123q16 -68 139 -592l112 512h156q1 0 22.5 -90.5t52.5 -222.5t48 -201q55 249 129 592h123q0 -1 -11 -53t-34 -158t-39 -178q-57 -259 -59 -267q-4 -22 -11.5 -52l-9.5 -38q-13 -49 -25 -63q-25 -25 -61 -25q-24 0 -43 8q-20 8 -28 24t-17 52q0 1 -23 90 q-9 35 -30.5 128t-32.5 139q-18 69 -27 112q-15 -68 -22 -108q-11 -52 -32 -142t-28 -125q-4 -19 -11 -48.5t-9 -41.5q-13 -49 -25 -61q-24 -27 -61 -27q-20 0 -43 10q-20 8 -28 23.5t-17 50.5q-3 9 -6 22t-8 33.5t-9 34.5q-8 32 -28.5 121t-34.5 148q-92 388 -92 393z" />
<glyph unicode="x" horiz-adv-x="684" d="M23 797h139l188 -297l166 297h139l-231 -414l244 -385l-146 2l-166 264l-147 -266h-139l213 383z" />
<glyph unicode="y" horiz-adv-x="624" d="M27 520l2 277h125v-283v-53q-1 -29 -1 -55q0 -104 13 -170q22 -107 158 -117q107 0 143 51l2 625q113 0 121 -2v-203v-950q0 -18 -3 -41t-20.5 -66t-48.5 -74q-57 -57 -152 -57h-16l-78 -2l-2 123l82 2h2h11q45 0 67 22q31 31 31 86l2 387q-59 -24 -124 -24h-19h-3h-2 q-101 6 -170 57.5t-98 143.5q-8 25 -12.5 53.5t-6 61t-2 54t0 57t0.5 44.5q0 10 -1 29t-1 24z" />
<glyph unicode="z" horiz-adv-x="671" d="M35 0l401 676h-346v121h561l-401 -676h350v-121h-565z" />
<glyph unicode="{" horiz-adv-x="722" d="M27 539h2l-2 110q135 0 225 84q36 32 58 73t22 75q0 365 155 477q21 15 41.5 24.5t42 13t33.5 4.5t34 0t26 -1v-109q-68 13 -113 -22q-45 -36 -72 -109q-37 -104 -37 -278q0 -59 -30.5 -120t-85.5 -110q-40 -40 -99 -67q6 -6 15 -9q192 -118 192 -344q0 -188 82 -290 q62 -74 148 -74v-111q-139 0 -234 115q-52 65 -78 149q-28 95 -28 211q0 160 -136 246q-36 22 -76.5 37.5t-60.5 20t-24 4.5z" />
<glyph unicode="|" horiz-adv-x="260" d="M61 1356l125 2v-1608h-123z" />
<glyph unicode="}" horiz-adv-x="733" d="M37 -133q85 0 147 74q82 102 82 290q0 225 193 344q7 3 14 9q-57 26 -98 67q-55 49 -86 110t-31 120q0 174 -37 278q-27 74 -71 109q-21 16 -49 21.5t-46 2.5l-18 -2v109q4 0 26 1t33.5 0t33 -4.5t42 -13t41.5 -24.5q156 -113 156 -477q0 -34 22 -75t58 -73 q90 -84 225 -84l-2 -110h2q-4 0 -24.5 -4.5t-61 -20t-76.5 -37.5q-135 -85 -135 -246q0 -113 -29 -211q-26 -84 -78 -149q-95 -115 -233 -115v111z" />
<glyph unicode="~" horiz-adv-x="802" d="M98 782l6 10q5 10 15 26t22 30q64 70 150 67q59 -2 123 -53q3 -2 10.5 -7.5t10 -7t9.5 -6t10.5 -6t9.5 -4t11 -3.5t11.5 -2t13.5 -1q22 0 41.5 7t32.5 17t22.5 20t13.5 17l4 7l101 -51q-1 -4 -8.5 -16t-26 -32t-42 -37.5t-60.5 -30.5t-78 -13q-76 0 -154 59q-4 3 -14 9.5 t-13 8.5t-9.5 5.5t-11.5 4.5t-11 1q-15 1 -29 -5.5t-23.5 -16t-16.5 -19t-11 -16.5l-4 -7z" />
<glyph unicode="&#xa8;" horiz-adv-x="473" d="M70 915q0 29 21 50.5t50 21.5q31 0 52.5 -21.5t21.5 -50.5q0 -31 -21.5 -52t-52.5 -21q-29 0 -50 21t-21 52zM274 915q0 29 21.5 50.5t52.5 21.5q29 0 50.5 -21.5t21.5 -50.5q0 -31 -21 -52t-51 -21q-31 0 -52.5 21t-21.5 52z" />
<glyph unicode="&#xad;" d="M80 365v94h768v-94h-768z" />
<glyph unicode="&#xb0;" horiz-adv-x="268" d="M43 911q0 37 25.5 62.5t62.5 25.5q35 0 60.5 -25.5t25.5 -62.5q0 -35 -25.5 -60.5t-60.5 -25.5q-37 0 -62.5 25.5t-25.5 60.5zM72 911q0 -23 17 -40t42 -17q23 0 40 17t17 40q0 25 -17 42.5t-40 17.5q-25 0 -42 -17.5t-17 -42.5z" />
<glyph unicode="&#xb4;" horiz-adv-x="473" d="M96 895l197 211l72 -68l-197 -211z" />
<glyph unicode="&#xc0;" horiz-adv-x="940" d="M27 2q0 1 11 42t33 120t40 147q258 943 325 1020q26 37 72 27q27 -6 46 -29.5t38 -68.5q27 -62 55 -158q57 -191 119 -451q33 -138 69 -300.5t56 -255t20 -93.5l-127 -2q0 3 -18 88.5t-52.5 240t-68.5 294.5l-2 2q-76 -40 -150.5 -99t-131 -119t-87.5 -97t-53 -68 q-16 -58 -32.5 -120.5t-24 -90t-8.5 -27.5zM299 522q158 155 313 228q-72 292 -116 415q-70 -196 -197 -643zM336 1595l72 68l196 -211l-72 -68z" />
<glyph unicode="&#xc1;" horiz-adv-x="940" d="M27 2q0 1 11 42t33 120t40 147q258 943 325 1020q26 37 72 27q27 -6 46 -29.5t38 -68.5q27 -62 55 -158q57 -191 119 -451q33 -138 69 -300.5t56 -255t20 -93.5l-127 -2q0 3 -18 88.5t-52.5 240t-68.5 294.5l-2 2q-76 -40 -150.5 -99t-131 -119t-87.5 -97t-53 -68 q-16 -58 -32.5 -120.5t-24 -90t-8.5 -27.5zM299 522q158 155 313 228q-72 292 -116 415q-70 -196 -197 -643zM336 1452l196 211l72 -68l-196 -211z" />
<glyph unicode="&#xc2;" horiz-adv-x="940" d="M27 2q0 1 11 42t33 120t40 147q258 943 325 1020q26 37 72 27q27 -6 46 -29.5t38 -68.5q27 -62 55 -158q57 -191 119 -451q33 -138 69 -300.5t56 -255t20 -93.5l-127 -2q0 3 -18 88.5t-52.5 240t-68.5 294.5l-2 2q-76 -40 -150.5 -99t-131 -119t-87.5 -97t-53 -68 q-16 -58 -32.5 -120.5t-24 -90t-8.5 -27.5zM295 1456l125 207h106l117 -209l-86 -47l-86 152l-92 -154zM299 522q158 155 313 228q-72 292 -116 415q-70 -196 -197 -643z" />
<glyph unicode="&#xc3;" horiz-adv-x="940" d="M27 2q0 1 11 42t33 120t40 147q258 943 325 1020q26 37 72 27q27 -6 46 -29.5t38 -68.5q27 -62 55 -158q57 -191 119 -451q33 -138 69 -300.5t56 -255t20 -93.5l-127 -2q0 3 -18 88.5t-52.5 240t-68.5 294.5l-2 2q-76 -40 -150.5 -99t-131 -119t-87.5 -97t-53 -68 q-16 -58 -32.5 -120.5t-24 -90t-8.5 -27.5zM203 1491l5 9q4 9 13 22.5t19 25.5q58 61 129 58q46 0 101 -41q1 -1 2.5 -2t2.5 -2q2 -1 7.5 -5t7 -5.5t6.5 -4.5t7 -4.5t6.5 -4t7.5 -3.5t7 -2.5t7.5 -2t8 -1t9.5 -0.5q30 0 54.5 15t34.5 29l9 15l88 -45q-3 -5 -8 -13.5 t-21.5 -27t-36.5 -33.5t-52 -26.5t-68 -11.5q-29 0 -57 10t-40.5 18t-35.5 25q-30 24 -49 24q-21 1 -39.5 -13t-26.5 -28l-8 -14zM299 522q158 155 313 228q-72 292 -116 415q-70 -196 -197 -643z" />
<glyph unicode="&#xc4;" horiz-adv-x="940" d="M27 2q0 1 11 42t33 120t40 147q258 943 325 1020q26 37 72 27q27 -6 46 -29.5t38 -68.5q27 -62 55 -158q57 -191 119 -451q33 -138 69 -300.5t56 -255t20 -93.5l-127 -2q0 3 -18 88.5t-52.5 240t-68.5 294.5l-2 2q-76 -40 -150.5 -99t-131 -119t-87.5 -97t-53 -68 q-16 -58 -32.5 -120.5t-24 -90t-8.5 -27.5zM295 1473q0 29 21.5 50t50.5 21q31 0 52 -21t21 -50q0 -31 -21 -52.5t-52 -21.5q-29 0 -50.5 21.5t-21.5 52.5zM299 522q158 155 313 228q-72 292 -116 415q-70 -196 -197 -643zM500 1473q0 29 21 50t52 21q29 0 50.5 -21 t21.5 -50q0 -31 -21.5 -52.5t-50.5 -21.5q-31 0 -52 21.5t-21 52.5z" />
<glyph unicode="&#xc5;" horiz-adv-x="940" d="M27 2q0 1 11 42t33 120t40 147q258 943 325 1020q26 37 72 27q27 -6 46 -29.5t38 -68.5q27 -62 55 -158q57 -191 119 -451q33 -138 69 -300.5t56 -255t20 -93.5l-127 -2q0 3 -18 88.5t-52.5 240t-68.5 294.5l-2 2q-76 -40 -150.5 -99t-131 -119t-87.5 -97t-53 -68 q-16 -58 -32.5 -120.5t-24 -90t-8.5 -27.5zM299 522q158 155 313 228q-72 292 -116 415q-70 -196 -197 -643zM393 1493q0 37 25.5 62.5t62.5 25.5q35 0 60.5 -25.5t25.5 -62.5q0 -35 -25.5 -60.5t-60.5 -25.5q-37 0 -62.5 25.5t-25.5 60.5zM422 1493q0 -23 17 -40t42 -17 q23 0 40.5 17t17.5 40q0 25 -17.5 42t-40.5 17q-25 0 -42 -17t-17 -42z" />
<glyph unicode="&#xc7;" horiz-adv-x="909" d="M27 633q-3 182 47 334q50 161 147 258q129 129 307 129q150 0 244 -97q32 -32 55 -75.5t33 -77.5t16 -72.5t6.5 -51.5t0.5 -24l-125 5q3 0 0 36t-21.5 89t-52.5 88q-60 57 -156 57q-127 0 -219 -92q-79 -82 -119 -209q-40 -130 -40 -295q3 -168 47 -287q40 -115 112 -184 q88 -85 205 -82q137 6 188 72q39 51 39 163h125q0 -152 -65 -239q-43 -55 -113 -86q-79 -30 -170 -33h-14q-160 0 -281 115q-93 90 -144 234t-52 325zM381 0h82v-88q25 14 59 14q48 0 78.5 -27t40.5 -57l2 -2v-2q3 -11 4.5 -27.5t-4.5 -50.5t-25 -59q-39 -49 -120 -49h-107 v82h107q40 0 55 18q10 12 12 34.5t-2 31.5q-1 4 -5 9.5t-14 11t-22 5.5q-29 0 -41 -24l-6 -33l-33 2h-61v211z" />
<glyph unicode="&#xc8;" horiz-adv-x="749" d="M31 0v1352l692 2v-123l-567 -4l2 -463h436v-123h-436l4 -516h561v-125h-692zM240 1595l71 68l197 -211l-72 -68z" />
<glyph unicode="&#xc9;" horiz-adv-x="749" d="M31 0v1352l692 2v-123l-567 -4l2 -463h436v-123h-436l4 -516h561v-125h-692zM240 1452l196 211l72 -68l-197 -211z" />
<glyph unicode="&#xca;" horiz-adv-x="749" d="M31 0v1352l692 2v-123l-567 -4l2 -463h436v-123h-436l4 -516h561v-125h-692zM201 1456l125 207h106l117 -209l-86 -47l-86 152l-92 -154z" />
<glyph unicode="&#xcb;" horiz-adv-x="749" d="M31 0v1352l692 2v-123l-567 -4l2 -463h436v-123h-436l4 -516h561v-125h-692zM199 1473q0 29 21 50t50 21q31 0 52.5 -21t21.5 -50q0 -31 -21.5 -52.5t-52.5 -21.5q-29 0 -50 21.5t-21 52.5zM403 1473q0 29 21.5 50t52.5 21q29 0 50.5 -21t21.5 -50q0 -31 -21.5 -52.5 t-50.5 -21.5q-31 0 -52.5 21.5t-21.5 52.5z" />
<glyph unicode="&#xcc;" horiz-adv-x="215" d="M-27 1595l72 68l197 -211l-72 -68zM92 0h131l-2 1354h-129v-1354z" />
<glyph unicode="&#xcd;" horiz-adv-x="215" d="M-27 1452l197 211l72 -68l-197 -211zM92 0v1354h129l2 -1354h-131z" />
<glyph unicode="&#xce;" horiz-adv-x="215" d="M-66 1456l125 207h107l117 -209l-86 -47l-86 152l-93 -154zM92 0v1354h129l2 -1354h-131z" />
<glyph unicode="&#xcf;" horiz-adv-x="215" d="M-68 1473q0 29 21.5 50t50.5 21q31 0 52.5 -21t21.5 -50q0 -31 -21.5 -52.5t-52.5 -21.5q-29 0 -50.5 21.5t-21.5 52.5zM92 0v1354h129l2 -1354h-131zM137 1473q0 29 21.5 50t52.5 21q29 0 50.5 -21t21.5 -50q0 -31 -21.5 -52.5t-50.5 -21.5q-31 0 -52.5 21.5t-21.5 52.5 z" />
<glyph unicode="&#xd1;" horiz-adv-x="999" d="M29 0v1292q0 22 12 38.5t31 21.5q20 6 39 -2t30 -25l699 -1153v1120q0 25 18 43.5t43 18.5q26 0 44 -18.5t18 -43.5v-1233v-6v-53h-56h-4h-67h-2h-33l-27 41l-8 14l-614 1018v-1073h-123zM233 1491l5 9q4 9 13 22.5t19 25.5q58 61 129 58q23 0 45 -8.5t31.5 -15 t30.5 -21.5q2 -1 7.5 -5t7 -5.5t6.5 -4.5t7 -4.5t6.5 -4t7.5 -3.5t7 -2.5t7.5 -2t8 -1t9.5 -0.5q30 0 54.5 15t33.5 29l10 15l88 -45q-3 -5 -8 -13.5t-21.5 -27t-36.5 -33.5t-52 -26.5t-68 -11.5q-63 0 -134 53q-30 24 -49 24q-21 1 -39 -13t-26 -28l-8 -14z" />
<glyph unicode="&#xd2;" horiz-adv-x="1013" d="M27 645q0 -295 114 -477q59 -96 148 -150q91 -57 198 -57t201 57q88 59 143 152q115 186 115 481q0 313 -126.5 505t-330.5 192q-111 0 -200 -60q-91 -59 -146 -155q-116 -191 -116 -488zM147 645q0 257 99 424q96 158 243 158q77 0 136 -39q56 -38 104 -115 q94 -160 94 -422q0 -261 -94 -418q-46 -72 -106 -112q-61 -37 -136 -37q-74 0 -135 37q-64 39 -106 110q-99 157 -99 414zM373 1595l71 68l197 -211l-72 -68z" />
<glyph unicode="&#xd3;" horiz-adv-x="1013" d="M27 645q0 297 116 488q55 96 146 155q89 60 200 60q204 0 330.5 -192t126.5 -505q0 -295 -115 -481q-55 -93 -143 -152q-94 -57 -201 -57t-198 57q-89 54 -148 150q-114 182 -114 477zM147 645q0 -257 99 -414q42 -71 106 -110q61 -37 135 -37q75 0 136 37q60 40 106 112 q94 157 94 418q0 262 -94 422q-48 77 -104 115q-59 39 -136 39q-147 0 -243 -158q-99 -167 -99 -424zM373 1452l196 211l72 -68l-197 -211z" />
<glyph unicode="&#xd4;" horiz-adv-x="1013" d="M27 645q0 297 116 488q55 96 146 155q89 60 200 60q204 0 330.5 -192t126.5 -505q0 -295 -115 -481q-55 -93 -143 -152q-94 -57 -201 -57t-198 57q-89 54 -148 150q-114 182 -114 477zM147 645q0 -257 99 -414q42 -71 106 -110q61 -37 135 -37q75 0 136 37q60 40 106 112 q94 157 94 418q0 262 -94 422q-48 77 -104 115q-59 39 -136 39q-147 0 -243 -158q-99 -167 -99 -424zM332 1456l125 207h106l117 -209l-86 -47l-86 152l-92 -154z" />
<glyph unicode="&#xd5;" horiz-adv-x="1013" d="M27 645q0 297 116 488q55 96 146 155q89 60 200 60q204 0 330.5 -192t126.5 -505q0 -295 -115 -481q-55 -93 -143 -152q-94 -57 -201 -57t-198 57q-89 54 -148 150q-114 182 -114 477zM147 645q0 -257 99 -414q42 -71 106 -110q61 -37 135 -37q75 0 136 37q60 40 106 112 q94 157 94 418q0 262 -94 422q-48 77 -104 115q-59 39 -136 39q-147 0 -243 -158q-99 -167 -99 -424zM240 1491l4 9q5 9 13.5 22.5t18.5 25.5q58 61 130 58q46 0 101 -41q1 -1 2.5 -2t2.5 -2q2 -1 7.5 -5t7 -5.5t6.5 -4.5t7 -4.5t6.5 -4t7.5 -3.5t7 -2.5t7.5 -2t8 -1 t9.5 -0.5q30 0 54.5 15t33.5 29l10 15l88 -45q-3 -5 -8 -13.5t-21.5 -27t-36.5 -33.5t-52 -26.5t-68 -11.5q-29 0 -57 10t-40.5 18t-35.5 25q-30 24 -50 24q-21 1 -39 -13t-26 -28l-8 -14z" />
<glyph unicode="&#xd6;" horiz-adv-x="1013" d="M27 645q0 297 116 488q55 96 146 155q89 60 200 60q204 0 330.5 -192t126.5 -505q0 -295 -115 -481q-55 -93 -143 -152q-94 -57 -201 -57t-198 57q-89 54 -148 150q-114 182 -114 477zM147 645q0 -257 99 -414q42 -71 106 -110q61 -37 135 -37q75 0 136 37q60 40 106 112 q94 157 94 418q0 262 -94 422q-48 77 -104 115q-59 39 -136 39q-147 0 -243 -158q-99 -167 -99 -424zM332 1473q0 29 21 50t50 21q31 0 52.5 -21t21.5 -50q0 -31 -21.5 -52.5t-52.5 -21.5q-29 0 -50 21.5t-21 52.5zM537 1473q0 29 21 50t52 21q29 0 50.5 -21t21.5 -50 q0 -31 -21.5 -52.5t-50.5 -21.5q-31 0 -52 21.5t-21 52.5z" />
<glyph unicode="&#xd9;" d="M29 360q0 -102 55 -204q99 -180 330 -195h32q155 0 261 92q45 41 77.5 95t47 106t20 82t6.5 53q8 136 8 963h-121q0 -20 -1 -224.5t-3 -445.5t-4 -285q-19 -172 -110 -254q-80 -68 -205 -59q-163 9 -232 131q-18 32 -28 68.5t-11 56.5l-1 20v994h-121v-994zM317 1595 l72 68l197 -211l-72 -68z" />
<glyph unicode="&#xda;" d="M29 360v994h121v-994q-1 -73 40 -145q69 -122 232 -131q125 -9 205 59q91 82 110 254q2 44 4 285t3 445.5t1 224.5h121q0 -827 -8 -963q-1 -23 -6.5 -53t-20 -82t-47 -106t-77.5 -95q-106 -92 -261 -92h-32q-231 15 -330 195q-55 102 -55 204zM317 1452l197 211l72 -68 l-197 -211z" />
<glyph unicode="&#xdb;" d="M29 360v994h121v-994q-1 -73 40 -145q69 -122 232 -131q125 -9 205 59q91 82 110 254q2 44 4 285t3 445.5t1 224.5h121q0 -827 -8 -963q-1 -23 -6.5 -53t-20 -82t-47 -106t-77.5 -95q-106 -92 -261 -92h-32q-231 15 -330 195q-55 102 -55 204zM276 1456l125 207h107 l117 -209l-86 -47l-86 152l-93 -154z" />
<glyph unicode="&#xdc;" d="M29 360v994h121v-994q-1 -73 40 -145q69 -122 232 -131q125 -9 205 59q91 82 110 254q2 44 4 285t3 445.5t1 224.5h121q0 -827 -8 -963q-1 -23 -6.5 -53t-20 -82t-47 -106t-77.5 -95q-106 -92 -261 -92h-32q-231 15 -330 195q-55 102 -55 204zM276 1473q0 29 21.5 50 t50.5 21q31 0 52.5 -21t21.5 -50q0 -31 -21.5 -52.5t-52.5 -21.5q-29 0 -50.5 21.5t-21.5 52.5zM481 1473q0 29 21.5 50t52.5 21q29 0 50.5 -21t21.5 -50q0 -31 -21.5 -52.5t-50.5 -21.5q-31 0 -52.5 21.5t-21.5 52.5z" />
<glyph unicode="&#xe0;" horiz-adv-x="665" d="M28 455.5q4 82.5 25 142.5q31 91 99.5 142t169.5 57h2h2q85 0 143 -27q39 -17 70 -42.5t42 -42.5l11 -17v-478q0 -49 20 -69l21 -10v-109h-17q-16 -1 -37.5 3.5t-37.5 17.5q-3 3 -9 6l-2 -2q-75 -60 -192 -60h-2q-143 0 -223 80q-82 82 -82 236q0 27 -2 45 q-5 45 -1 127.5zM152 334q2 -20 2 -55q0 -102 47 -146q43 -43 135 -43q98 0 133 47v484q-5 10 -16 18q-39 35 -125 35q-63 -5 -101.5 -32.5t-58.5 -82.5q-21 -65 -16 -225zM199 1038l71 68l197 -211l-72 -68z" />
<glyph unicode="&#xe1;" horiz-adv-x="665" d="M28 455.5q4 82.5 25 142.5q31 91 99.5 142t169.5 57h2h2q85 0 143 -27q39 -17 70 -42.5t42 -42.5l11 -17v-478q0 -49 20 -69l21 -10v-109h-17q-16 -1 -37.5 3.5t-37.5 17.5q-3 3 -9 6l-2 -2q-75 -60 -192 -60h-2q-143 0 -223 80q-82 82 -82 236q0 27 -2 45 q-5 45 -1 127.5zM152 334q2 -20 2 -55q0 -102 47 -146q43 -43 135 -43q98 0 133 47v484q-5 10 -16 18q-39 35 -125 35q-63 -5 -101.5 -32.5t-58.5 -82.5q-21 -65 -16 -225zM199 895l196 211l72 -68l-197 -211z" />
<glyph unicode="&#xe2;" horiz-adv-x="665" d="M28 455.5q4 82.5 25 142.5q31 91 99.5 142t169.5 57h2h2q85 0 143 -27q39 -17 70 -42.5t42 -42.5l11 -17v-478q0 -49 20 -69l21 -10v-109h-17q-16 -1 -37.5 3.5t-37.5 17.5q-3 3 -9 6l-2 -2q-75 -60 -192 -60h-2q-143 0 -223 80q-82 82 -82 236q0 27 -2 45 q-5 45 -1 127.5zM152 334q2 -20 2 -55q0 -102 47 -146q43 -43 135 -43q98 0 133 47v484q-5 10 -16 18q-39 35 -125 35q-63 -5 -101.5 -32.5t-58.5 -82.5q-21 -65 -16 -225zM158 899l125 207h106l117 -209l-86 -47l-86 151l-92 -153z" />
<glyph unicode="&#xe3;" horiz-adv-x="665" d="M28 455.5q4 82.5 25 142.5q31 91 99.5 142t169.5 57h2h2q85 0 143 -27q39 -17 70 -42.5t42 -42.5l11 -17v-478q0 -49 20 -69l21 -10v-109h-17q-16 -1 -37.5 3.5t-37.5 17.5q-3 3 -9 6l-2 -2q-75 -60 -192 -60h-2q-143 0 -223 80q-82 82 -82 236q0 27 -2 45 q-5 45 -1 127.5zM61 934l5 9q4 9 13 22.5t19 25.5q58 61 129 58q23 0 45 -8.5t31.5 -15t30.5 -21.5q2 -1 7.5 -5t7 -5.5t6.5 -4.5t7 -4.5t6.5 -4t7.5 -3.5t7 -2.5t7.5 -2t8 -1t9.5 -0.5q30 0 54.5 14.5t33.5 29.5l10 15l88 -45q-3 -5 -8 -13.5t-21.5 -27.5t-36.5 -33.5 t-52 -26.5t-68 -12q-29 0 -57 10t-41 18.5t-36 25.5q-30 24 -49 24q-21 1 -39 -13t-26 -28l-8 -14zM152 334q2 -20 2 -55q0 -102 47 -146q43 -43 135 -43q98 0 133 47v484q-5 10 -16 18q-39 35 -125 35q-63 -5 -101.5 -32.5t-58.5 -82.5q-21 -65 -16 -225z" />
<glyph unicode="&#xe4;" horiz-adv-x="665" d="M28 455.5q4 82.5 25 142.5q31 91 99.5 142t169.5 57h2h2q85 0 143 -27q39 -17 70 -42.5t42 -42.5l11 -17v-478q0 -49 20 -69l21 -10v-109h-17q-16 -1 -37.5 3.5t-37.5 17.5q-3 3 -9 6l-2 -2q-75 -60 -192 -60h-2q-143 0 -223 80q-82 82 -82 236q0 27 -2 45 q-5 45 -1 127.5zM152 334q2 -20 2 -55q0 -102 47 -146q43 -43 135 -43q98 0 133 47v484q-5 10 -16 18q-39 35 -125 35q-63 -5 -101.5 -32.5t-58.5 -82.5q-21 -65 -16 -225zM158 915q0 29 21 50.5t50 21.5q31 0 52.5 -21.5t21.5 -50.5q0 -31 -21.5 -52t-52.5 -21 q-29 0 -50 21t-21 52zM362 915q0 29 21.5 50.5t52.5 21.5q29 0 50.5 -21.5t21.5 -50.5q0 -31 -21 -52t-51 -21q-31 0 -52.5 21t-21.5 52z" />
<glyph unicode="&#xe5;" horiz-adv-x="665" d="M28 455.5q4 82.5 25 142.5q31 91 99.5 142t169.5 57h2h2q85 0 143 -27q39 -17 70 -42.5t42 -42.5l11 -17v-478q0 -49 20 -69l21 -10v-109h-17q-16 -1 -37.5 3.5t-37.5 17.5q-3 3 -9 6l-2 -2q-75 -60 -192 -60h-2q-143 0 -223 80q-82 82 -82 236q0 27 -2 45 q-5 45 -1 127.5zM152 334q2 -20 2 -55q0 -102 47 -146q43 -43 135 -43q98 0 133 47v484q-5 10 -16 18q-39 35 -125 35q-63 -5 -101.5 -32.5t-58.5 -82.5q-21 -65 -16 -225zM248 911q0 37 25.5 62.5t62.5 25.5q35 0 60.5 -25.5t25.5 -62.5q0 -35 -25.5 -60.5t-60.5 -25.5 q-37 0 -62.5 25.5t-25.5 60.5zM276 911q0 -23 17.5 -40t42.5 -17q23 0 40 17t17 40q0 25 -17 42.5t-40 17.5q-25 0 -42.5 -17.5t-17.5 -42.5z" />
<glyph unicode="&#xe7;" horiz-adv-x="602" d="M25 274v50q-10 187 20 280q27 85 86 135q68 59 174 68h2q141 3 211 -70q49 -51 49 -119h-118q4 28 -19 48q-36 29 -119 26q-66 -4 -101 -33t-56 -92q-7 -22 -11.5 -46t-6 -52.5t-2 -45.5t0 -50.5t0.5 -42.5v-56q0 -88 53 -141q47 -47 150 -41q73 5 104 60q6 12 9.5 23 t3.5 15v5h112q0 -59 -26 -105q-59 -103 -199 -113h-25q-135 0 -211 76q-81 78 -81 221zM170 0h82v-88q24 14 59 14q48 0 78.5 -27t40.5 -57l2 -2v-2q3 -12 5 -28t-4 -50t-25 -59q-39 -49 -121 -49h-107v82h107q40 0 55 18q10 12 12 34.5t-2 31.5q-1 4 -5 9.5t-14 11t-22 5.5 q-29 0 -41 -24l-6 -33l-33 2h-61v211z" />
<glyph unicode="&#xe8;" horiz-adv-x="616" d="M27 428q-6 -79 6 -184v-6q14 -102 53 -160q78 -117 246 -117h10q74 2 130 36t87 97q29 59 29 123l-119 -2q-2 -35 -18 -68q-29 -65 -113 -65h-6q-50 0 -85.5 14t-54 40.5t-27.5 53t-13 62.5v8q-5 23 -7 51h97h2q160 6 256 90q93 81 90 191q-3 88 -74 149q-71 59 -188 56 q-130 -3 -207 -92q-82 -94 -94 -277zM145 430q13 138 66 197q45 51 119 51h6q65 0 104 -31q31 -24 31 -59q0 -53 -49 -96q-72 -58 -182 -60zM174 1038l72 68l196 -211l-71 -68z" />
<glyph unicode="&#xe9;" horiz-adv-x="616" d="M27 428q12 183 94 277q77 89 207 92q117 3 188 -56q71 -61 74 -149q3 -110 -90 -191q-96 -84 -256 -90h-2h-97q2 -28 7 -51v-8q4 -36 13 -62.5t27.5 -53t54 -40.5t85.5 -14h6q84 0 113 65q7 15 11.5 32t5.5 27l1 9l119 2q0 -64 -29 -123q-31 -63 -87 -97t-130 -36h-10 q-168 0 -246 117q-39 58 -53 160v6q-12 105 -6 184zM145 430l95 2q110 2 182 60q49 43 49 96q0 35 -31 59q-39 31 -104 31h-6q-74 0 -119 -51q-53 -59 -66 -197zM174 895l197 211l71 -68l-196 -211z" />
<glyph unicode="&#xea;" horiz-adv-x="616" d="M27 428q12 183 94 277q77 89 207 92q117 3 188 -56q71 -61 74 -149q3 -110 -90 -191q-96 -84 -256 -90h-2h-97q2 -28 7 -51v-8q4 -36 13 -62.5t27.5 -53t54 -40.5t85.5 -14h6q84 0 113 65q7 15 11.5 32t5.5 27l1 9l119 2q0 -64 -29 -123q-31 -63 -87 -97t-130 -36h-10 q-168 0 -246 117q-39 58 -53 160v6q-12 105 -6 184zM133 899l125 207h107l116 -209l-86 -47l-86 151l-92 -153zM145 430l95 2q110 2 182 60q49 43 49 96q0 35 -31 59q-39 31 -104 31h-6q-74 0 -119 -51q-53 -59 -66 -197z" />
<glyph unicode="&#xeb;" horiz-adv-x="616" d="M27 428q12 183 94 277q77 89 207 92q117 3 188 -56q71 -61 74 -149q3 -110 -90 -191q-96 -84 -256 -90h-2h-97q2 -28 7 -51v-8q4 -36 13 -62.5t27.5 -53t54 -40.5t85.5 -14h6q84 0 113 65q7 15 11.5 32t5.5 27l1 9l119 2q0 -64 -29 -123q-31 -63 -87 -97t-130 -36h-10 q-168 0 -246 117q-39 58 -53 160v6q-12 105 -6 184zM133 915q0 29 21.5 50.5t50.5 21.5q31 0 52.5 -21.5t21.5 -50.5q0 -31 -21.5 -52t-52.5 -21q-29 0 -50.5 21t-21.5 52zM145 430l95 2q110 2 182 60q49 43 49 96q0 35 -31 59q-39 31 -104 31h-6q-74 0 -119 -51 q-53 -59 -66 -197zM338 915q0 29 21.5 50.5t52.5 21.5q29 0 50 -21.5t21 -50.5q0 -31 -21 -52t-50 -21q-31 0 -52.5 21t-21.5 52z" />
<glyph unicode="&#xec;" horiz-adv-x="237" d="M-14 1038l71 68l197 -211l-72 -68zM51 0h123v797h-123v-797z" />
<glyph unicode="&#xed;" horiz-adv-x="284" d="M-14 903l196 211l72 -67l-197 -211zM53 801h123l2 -799h-123z" />
<glyph unicode="&#xee;" horiz-adv-x="237" d="M-55 899l125 207h106l117 -209l-86 -47l-86 151l-92 -153zM51 0v797h123v-797h-123z" />
<glyph unicode="&#xef;" horiz-adv-x="237" d="M-55 915q0 29 21 50.5t50 21.5q31 0 52.5 -21.5t21.5 -50.5q0 -31 -21.5 -52t-52.5 -21q-29 0 -50 21t-21 52zM51 0v797h123v-797h-123zM150 915q0 29 21 50.5t52 21.5q29 0 50.5 -21.5t21.5 -50.5q0 -31 -21.5 -52t-50.5 -21q-31 0 -52 21t-21 52z" />
<glyph unicode="&#xf1;" horiz-adv-x="768" d="M23 676v123q77 0 135 -58q8 -9 32 -43q2 3 7.5 8.5t7.5 8.5q84 84 223 84q147 0 231 -84q35 -35 55 -83.5t22.5 -71t2.5 -40.5v-518h-123v520q0 44 -24 80q-44 74 -164 74q-88 0 -135 -47q-23 -23 -35.5 -58t-14 -50t-1.5 -25v-11v-32v-455h-123v483q-5 128 -51 174 q-18 21 -45 21zM113 934l5 9q4 9 13 22.5t19 25.5q58 61 129 58q46 0 101 -41q1 -1 2.5 -2t2.5 -2q2 -1 7.5 -5t7 -5.5t6.5 -4.5t7 -4.5t6.5 -4t7.5 -3.5t7 -2.5t7.5 -2t8 -1t9.5 -0.5q30 0 54.5 14.5t34.5 29.5l9 15l88 -45q-3 -5 -8 -13.5t-21.5 -27.5t-36.5 -33.5 t-52 -26.5t-68 -12q-29 0 -57 10t-40 18t-36 26q-30 24 -50 24q-21 1 -39 -13t-26 -28l-8 -14z" />
<glyph unicode="&#xf2;" horiz-adv-x="724" d="M16 381q0 -165 93 -291q41 -55 104 -92q64 -37 135 -37t135 37q60 35 105 92q90 126 90 291q0 166 -90 289q-44 58 -105 94q-60 35 -135 35t-135 -35q-64 -38 -104 -94q-93 -123 -93 -289zM137 381q0 131 68 217q60 82 143 82q84 0 144 -82q67 -89 67 -217t-67 -217 q-60 -82 -144 -82q-83 0 -143 82q-68 86 -68 217zM227 1038l72 68l197 -211l-72 -68z" />
<glyph unicode="&#xf3;" horiz-adv-x="724" d="M16 381q0 166 93 289q40 56 104 94q60 35 135 35t135 -35q61 -36 105 -94q90 -123 90 -289q0 -165 -90 -291q-45 -57 -105 -92q-64 -37 -135 -37t-135 37q-63 37 -104 92q-93 126 -93 291zM137 381q0 -131 68 -217q60 -82 143 -82q84 0 144 82q67 89 67 217t-67 217 q-60 82 -144 82q-83 0 -143 -82q-68 -86 -68 -217zM227 895l197 211l72 -68l-197 -211z" />
<glyph unicode="&#xf4;" horiz-adv-x="724" d="M16 381q0 166 93 289q40 56 104 94q60 35 135 35t135 -35q61 -36 105 -94q90 -123 90 -289q0 -165 -90 -291q-45 -57 -105 -92q-64 -37 -135 -37t-135 37q-63 37 -104 92q-93 126 -93 291zM137 381q0 -131 68 -217q60 -82 143 -82q84 0 144 82q67 89 67 217t-67 217 q-60 82 -144 82q-83 0 -143 -82q-68 -86 -68 -217zM188 899l125 207h107l117 -209l-86 -47l-86 151l-93 -153z" />
<glyph unicode="&#xf5;" horiz-adv-x="724" d="M16 381q0 166 93 289q40 56 104 94q60 35 135 35t135 -35q61 -36 105 -94q90 -123 90 -289q0 -165 -90 -291q-45 -57 -105 -92q-64 -37 -135 -37t-135 37q-63 37 -104 92q-93 126 -93 291zM96 934l4 9q5 9 14 22.5t19 25.5q58 61 129 58q23 0 45 -8.5t31.5 -15 t30.5 -21.5q2 -2 7.5 -6t8 -5.5t7.5 -5t7.5 -5t7 -3.5t8.5 -3.5t8.5 -2.5t9 -1.5t9.5 -0.5q19 0 36 6t28 14.5t19.5 17.5t12.5 15l3 6l88 -45q-2 -5 -7.5 -13.5t-22.5 -27.5t-37 -34t-52 -26.5t-68 -11.5q-29 0 -57 10t-40 18t-36 26q-30 24 -49 24q-21 1 -39.5 -13 t-26.5 -28l-8 -14zM137 381q0 -131 68 -217q60 -82 143 -82q84 0 144 82q67 89 67 217t-67 217q-60 82 -144 82q-83 0 -143 -82q-68 -86 -68 -217z" />
<glyph unicode="&#xf6;" horiz-adv-x="724" d="M16 381q0 166 93 289q40 56 104 94q60 35 135 35t135 -35q61 -36 105 -94q90 -123 90 -289q0 -165 -90 -291q-45 -57 -105 -92q-64 -37 -135 -37t-135 37q-63 37 -104 92q-93 126 -93 291zM137 381q0 -131 68 -217q60 -82 143 -82q84 0 144 82q67 89 67 217t-67 217 q-60 82 -144 82q-83 0 -143 -82q-68 -86 -68 -217zM186 915q0 29 21.5 50.5t50.5 21.5q31 0 52.5 -21.5t21.5 -50.5q0 -31 -21.5 -52t-52.5 -21q-30 0 -51 21t-21 52zM391 915q0 29 21.5 50.5t52.5 21.5q29 0 50.5 -21.5t21.5 -50.5q0 -31 -21.5 -52t-50.5 -21 q-31 0 -52.5 21t-21.5 52z" />
<glyph unicode="&#xf7;" horiz-adv-x="307" d="M-266 395v90h844v-90h-844zM57 80q0 38 26.5 64t63.5 26t64 -26t27 -64q0 -37 -27 -63.5t-64 -26.5t-63.5 26.5t-26.5 63.5zM57 797q0 38 26.5 64t63.5 26t64 -26t27 -64q0 -37 -27 -63.5t-64 -26.5t-63.5 26.5t-26.5 63.5z" />
<glyph unicode="&#xf9;" horiz-adv-x="675" d="M39 311v477h123v-481v-2q-2 -45 9 -104.5t44 -94.5q25 -28 76 -28q137 0 162 37q12 15 17.5 50t6 61.5t0.5 90.5v471h123v-471q0 -79 -2 -114q1 -26 2.5 -37t6.5 -26.5t14 -24.5l20 -11v-106q-1 0 -9 -1.5t-15.5 -1.5t-21.5 5t-30 16q-9 6 -20 17q-39 -46 -102.5 -62 t-151.5 -16q-101 0 -166 68q-62 68 -80 188q-6 37 -6 100zM203 1038l71 68l197 -211l-72 -68z" />
<glyph unicode="&#xfa;" horiz-adv-x="675" d="M39 311v477h123v-481v-2q-2 -45 9 -104.5t44 -94.5q25 -28 76 -28q137 0 162 37q12 15 17.5 50t6 61.5t0.5 90.5v471h123v-471q0 -79 -2 -114q1 -26 2.5 -37t6.5 -26.5t14 -24.5l20 -11v-106q-1 0 -9 -1.5t-15.5 -1.5t-21.5 5t-30 16q-9 6 -20 17q-39 -46 -102.5 -62 t-151.5 -16q-101 0 -166 68q-62 68 -80 188q-6 37 -6 100zM203 895l196 211l72 -68l-197 -211z" />
<glyph unicode="&#xfb;" horiz-adv-x="675" d="M39 311v477h123v-481v-2q-2 -45 9 -104.5t44 -94.5q25 -28 76 -28q137 0 162 37q12 15 17.5 50t6 61.5t0.5 90.5v471h123v-471q0 -79 -2 -114q1 -26 2.5 -37t6.5 -26.5t14 -24.5l20 -11v-106q-1 0 -9 -1.5t-15.5 -1.5t-21.5 5t-30 16q-9 6 -20 17q-39 -46 -102.5 -62 t-151.5 -16q-101 0 -166 68q-62 68 -80 188q-6 37 -6 100zM129 899l125 207h106l117 -209l-86 -47l-86 151l-92 -153z" />
<glyph unicode="&#xfc;" horiz-adv-x="675" d="M39 311v477h123v-481v-2q-2 -45 9 -104.5t44 -94.5q25 -28 76 -28q137 0 162 37q12 15 17.5 50t6 61.5t0.5 90.5v471h123v-471q0 -79 -2 -114q1 -26 2.5 -37t6.5 -26.5t14 -24.5l20 -11v-106q-1 0 -9 -1.5t-15.5 -1.5t-21.5 5t-30 16q-9 6 -20 17q-39 -46 -102.5 -62 t-151.5 -16q-101 0 -166 68q-62 68 -80 188q-6 37 -6 100zM131 915q0 29 21.5 50.5t50.5 21.5q31 0 52 -21.5t21 -50.5q0 -31 -21 -52t-52 -21q-29 0 -50.5 21t-21.5 52zM336 915q0 29 21.5 50.5t52.5 21.5q29 0 50 -21.5t21 -50.5q0 -31 -21 -52t-50 -21q-31 0 -52.5 21 t-21.5 52z" />
<glyph unicode="&#xff;" horiz-adv-x="624" d="M27 520l2 277h125v-283v-53q-4 -143 12 -225q22 -107 158 -117q107 0 143 51l2 625q113 0 121 -2v-203v-950q0 -18 -3 -41t-20.5 -66t-48.5 -74q-62 -62 -168 -57l-78 -2l-2 123l82 2h2q53 -3 78 22q31 31 31 86l2 387q-68 -28 -143 -24h-3h-2q-101 6 -170 57.5 t-98 143.5q-8 25 -12.5 53.5t-6 61t-2 54t0 57t0.5 44.5q0 10 -1 29t-1 24zM137 915q0 29 21.5 50.5t50.5 21.5q31 0 52.5 -21.5t21.5 -50.5q0 -31 -21.5 -52t-52.5 -21q-29 0 -50.5 21t-21.5 52zM342 915q0 29 21.5 50.5t52.5 21.5q29 0 50 -21.5t21 -50.5q0 -31 -21 -52 t-50 -21q-31 0 -52.5 21t-21.5 52z" />
<glyph unicode="&#x178;" horiz-adv-x="1021" d="M29 1356l141 2l354 -639l334 637h137l-407 -783v-571h-123v571zM336 1473q0 29 21.5 50t50.5 21q31 0 52 -21t21 -50q0 -31 -21 -52.5t-52 -21.5q-29 0 -50.5 21.5t-21.5 52.5zM541 1473q0 29 21 50t52 21q29 0 50.5 -21t21.5 -50q0 -31 -21.5 -52.5t-50.5 -21.5 q-31 0 -52 21.5t-21 52.5z" />
<glyph unicode="&#x2c6;" horiz-adv-x="481" d="M59 899l125 207h107l117 -209l-86 -47l-86 151l-93 -153z" />
<glyph unicode="&#x2dc;" horiz-adv-x="663" d="M59 934l5 9q4 9 13 22.5t19 25.5q58 61 129 58q23 0 45 -8.5t31.5 -15t30.5 -21.5q2 -1 7.5 -5t7 -5.5t6.5 -4.5t7 -4.5t6.5 -4t7.5 -3.5t7 -2.5t7.5 -2t8 -1t9.5 -0.5q30 0 54.5 14.5t33.5 29.5l10 15l88 -45q-3 -5 -8 -13.5t-21.5 -27.5t-36.5 -33.5t-52 -26.5t-68 -12 q-29 0 -57 10t-41 18.5t-36 25.5q-30 24 -49 24q-21 1 -39 -13t-26 -28l-8 -14z" />
<glyph unicode="&#x2000;" horiz-adv-x="831" />
<glyph unicode="&#x2001;" horiz-adv-x="1663" />
<glyph unicode="&#x2002;" horiz-adv-x="831" />
<glyph unicode="&#x2003;" horiz-adv-x="1663" />
<glyph unicode="&#x2004;" horiz-adv-x="554" />
<glyph unicode="&#x2005;" horiz-adv-x="415" />
<glyph unicode="&#x2006;" horiz-adv-x="277" />
<glyph unicode="&#x2007;" horiz-adv-x="277" />
<glyph unicode="&#x2008;" horiz-adv-x="207" />
<glyph unicode="&#x2009;" horiz-adv-x="332" />
<glyph unicode="&#x200a;" horiz-adv-x="92" />
<glyph unicode="&#x2010;" d="M80 365v94h768v-94h-768z" />
<glyph unicode="&#x2011;" d="M80 365v94h768v-94h-768z" />
<glyph unicode="&#x2012;" d="M80 365v94h768v-94h-768z" />
<glyph unicode="&#x2013;" horiz-adv-x="757" d="M35 524v88h684v-88h-684z" />
<glyph unicode="&#x2014;" horiz-adv-x="950" d="M27 524v88h876v-88h-876z" />
<glyph unicode="&#x2018;" horiz-adv-x="280" d="M33 1147q-5 53 22 123q-8 20 -8 39q0 38 27 65t65 27t65 -27t27 -65t-27 -65t-65 -27q-14 0 -20 2q-11 -35 -8 -64q6 -59 71 -104l-43 -64q-97 66 -106 160z" />
<glyph unicode="&#x2019;" horiz-adv-x="272" d="M27 1309q0 38 27 65t65 27t65 -27t27 -65q0 -22 -10 -39q29 -67 24 -123q-9 -94 -106 -160l-43 64q65 47 71 104q3 32 -10 64q-6 -2 -18 -2q-38 0 -65 27t-27 65z" />
<glyph unicode="&#x201c;" horiz-adv-x="493" d="M25 1147q-5 53 22 123q-8 20 -8 39q0 38 27 65t65 27t65 -27t27 -65t-27 -65t-65 -27q-14 0 -20 2q-11 -38 -9 -64q6 -59 72 -104l-43 -64q-97 66 -106 160zM262 1147q-4 50 23 123q-9 22 -9 39q0 38 27.5 65t65.5 27t65 -27t27 -65t-27 -65t-65 -27q-15 0 -21 2 q-11 -35 -8 -64q6 -59 72 -104l-43 -64q-98 67 -107 160z" />
<glyph unicode="&#x201d;" horiz-adv-x="501" d="M25 1309q0 38 27 65t65 27t65 -27t27 -65q0 -22 -10 -39q29 -67 24 -123q-9 -94 -106 -160l-43 64q65 47 71 104q3 32 -10 64q-6 -2 -18 -2q-38 0 -65 27t-27 65zM262 1309q0 38 27 65t65 27t65 -27t27 -65q0 -22 -10 -39q30 -69 25 -123q-9 -93 -107 -160l-43 64 q66 48 72 104q3 32 -10 64q-6 -2 -19 -2q-38 0 -65 27t-27 65z" />
<glyph unicode="&#x202f;" horiz-adv-x="332" />
<glyph unicode="&#x205f;" horiz-adv-x="415" />
<glyph unicode="&#x25fc;" horiz-adv-x="798" d="M0 0v799h799v-799h-799z" />
</font>
</defs>
</svg>
